<?xml version="1.0" encoding="UTF-8" standalone="no"?>
<!-- Created with Inkscape (http://www.inkscape.org/) -->

<svg
   xmlns:dc="http://purl.org/dc/elements/1.1/"
   xmlns:cc="http://creativecommons.org/ns#"
   xmlns:rdf="http://www.w3.org/1999/02/22-rdf-syntax-ns#"
   xmlns:svg="http://www.w3.org/2000/svg"
   xmlns="http://www.w3.org/2000/svg"
   xmlns:sodipodi="http://sodipodi.sourceforge.net/DTD/sodipodi-0.dtd"
   xmlns:inkscape="http://www.inkscape.org/namespaces/inkscape"
   width="592.48883"
   height="123.51662"
   id="svg2"
   sodipodi:version="0.32"
   inkscape:version="0.48.4 r9939"
   sodipodi:docname="RingOfParticles.pdf"
   version="1.0">
  <defs
     id="defs4" />
  <sodipodi:namedview
     id="base"
     pagecolor="#ffffff"
     bordercolor="#666666"
     borderopacity="1.0"
     inkscape:pageopacity="0.0"
     inkscape:pageshadow="2"
     inkscape:zoom="1.540463"
     inkscape:cx="257.241"
     inkscape:cy="20.266464"
     inkscape:document-units="mm"
     inkscape:current-layer="layer1"
     inkscape:window-width="1920"
     inkscape:window-height="1030"
     inkscape:window-x="0"
     inkscape:window-y="125"
     width="12.8cm"
     height="9.6cm"
     units="cm"
     showgrid="true"
     grid_units="mm"
     inkscape:object-paths="false"
     inkscape:grid-points="true"
     inkscape:grid-bbox="true"
     inkscape:guide-points="true"
     showguides="true"
     inkscape:guide-bbox="true"
     inkscape:window-maximized="1"
     fit-margin-top="0"
     fit-margin-left="0"
     fit-margin-right="0"
     fit-margin-bottom="0">
    <sodipodi:guide
       orientation="vertical"
       position="194.38111,-149.81228"
       id="guide3573" />
    <sodipodi:guide
       orientation="horizontal"
       position="137.90458,-138.77663"
       id="guide3579" />
    <sodipodi:guide
       orientation="horizontal"
       position="137.90458,-125.79352"
       id="guide3886" />
    <sodipodi:guide
       orientation="horizontal"
       position="137.90458,133.65229"
       id="guide3988" />
    <sodipodi:guide
       orientation="horizontal"
       position="137.90458,154.91213"
       id="guide4081" />
    <inkscape:grid
       id="GridFromPre046Settings"
       type="xygrid"
       originx="38.919737mm"
       originy="-42.280353mm"
       spacingx="2mm"
       spacingy="2mm"
       color="#3f3fff"
       empcolor="#3f3fff"
       opacity="0.15"
       empopacity="0.38"
       empspacing="5"
       units="mm"
       visible="true"
       enabled="true"
       snapvisiblegridlinesonly="true" />
    <sodipodi:guide
       position="137.90458,-149.81228"
       orientation="0,453.5433"
       id="guide4149" />
    <sodipodi:guide
       position="591.44788,-149.81228"
       orientation="-340.15747,0"
       id="guide4151" />
    <sodipodi:guide
       position="591.44788,190.34519"
       orientation="0,-453.5433"
       id="guide4153" />
    <sodipodi:guide
       position="137.90458,190.34519"
       orientation="340.15747,0"
       id="guide4155" />
  </sodipodi:namedview>
  <metadata
     id="metadata7">
    <rdf:RDF>
      <cc:Work
         rdf:about="">
        <dc:format>image/svg+xml</dc:format>
        <dc:type
           rdf:resource="http://purl.org/dc/dcmitype/StillImage" />
        <dc:title></dc:title>
      </cc:Work>
    </rdf:RDF>
  </metadata>
  <g
     inkscape:label="Layer 1"
     inkscape:groupmode="layer"
     id="layer1"
     transform="translate(137.90458,-764.86007)">
    <path
       sodipodi:type="arc"
       style="fill:#f9f9f9;stroke:#000000"
       id="path3767"
       sodipodi:cx="92.125984"
       sodipodi:cy="145.27557"
       sodipodi:rx="63.779526"
       sodipodi:ry="60.236221"
       d="m 155.90551,145.27557 c 0,33.26755 -28.55507,60.23623 -63.779526,60.23623 -35.224459,0 -63.779526,-26.96868 -63.779526,-60.23623 0,-33.26754 28.555067,-60.236218 63.779526,-60.236218 35.224456,0 63.779526,26.968678 63.779526,60.236218 z"
       transform="matrix(0.887949,0,0,0.78205984,-37.390123,713.46399)" />
    <path
       sodipodi:type="arc"
       style="fill:#f9f9f9;stroke:#000000"
       id="path3767-5"
       sodipodi:cx="92.125984"
       sodipodi:cy="145.27557"
       sodipodi:rx="63.779526"
       sodipodi:ry="60.236221"
       d="m 155.90551,145.27557 c 0,33.26755 -28.55507,60.23623 -63.779526,60.23623 -35.224459,0 -63.779526,-26.96868 -63.779526,-60.23623 0,-33.26754 28.555067,-60.236218 63.779526,-60.236218 35.224456,0 63.779526,26.968678 63.779526,60.236218 z"
       transform="matrix(0.72737956,0,0,0.95431971,216.56219,689.03391)" />
    <path
       sodipodi:type="arc"
       style="fill:#f9f9f9;stroke:#000000"
       id="path3767-55"
       sodipodi:cx="92.125984"
       sodipodi:cy="145.27557"
       sodipodi:rx="63.779526"
       sodipodi:ry="60.236221"
       d="m 155.90551,145.27557 c 0,33.26755 -28.55507,60.23623 -63.779526,60.23623 -35.224459,0 -63.779526,-26.96868 -63.779526,-60.23623 0,-33.26754 28.555067,-60.236218 63.779526,-60.236218 35.224456,0 63.779526,26.968678 63.779526,60.236218 z"
       transform="matrix(0.8028472,0,0,0.86129938,93.410841,702.49339)" />
    <path
       sodipodi:type="arc"
       style="fill:#f9f9f9;stroke:#000000"
       id="path3767-55-7"
       sodipodi:cx="92.125984"
       sodipodi:cy="145.27557"
       sodipodi:rx="63.779526"
       sodipodi:ry="60.236221"
       d="m 155.90551,145.27557 c 0,33.26755 -28.55507,60.23623 -63.779526,60.23623 -35.224459,0 -63.779526,-26.96868 -63.779526,-60.23623 0,-33.26754 28.555067,-60.236218 63.779526,-60.236218 35.224456,0 63.779526,26.968678 63.779526,60.236218 z"
       transform="matrix(0.8028472,0,0,0.86129938,325.80851,702.43928)" />
    <path
       sodipodi:type="arc"
       style="fill:#f9f9f9;stroke:#000000"
       id="path3767-55-0"
       sodipodi:cx="92.125984"
       sodipodi:cy="145.27557"
       sodipodi:rx="63.779526"
       sodipodi:ry="60.236221"
       d="m 155.90551,145.27557 c 0,33.26755 -28.55507,60.23623 -63.779526,60.23623 -35.224459,0 -63.779526,-26.96868 -63.779526,-60.23623 0,-33.26754 28.555067,-60.236218 63.779526,-60.236218 35.224456,0 63.779526,26.968678 63.779526,60.236218 z"
       transform="matrix(0.8028472,0,0,0.86129938,-155.97305,701.41146)" />
    <path
       sodipodi:type="arc"
       style="fill:#000000;stroke:#000000"
       id="path3895"
       sodipodi:cx="-60.236221"
       sodipodi:cy="124.01574"
       sodipodi:rx="3.5433071"
       sodipodi:ry="3.5433071"
       d="m -56.692914,124.01574 c 0,1.95691 -1.586393,3.54331 -3.543307,3.54331 -1.956915,0 -3.543307,-1.5864 -3.543307,-3.54331 0,-1.95692 1.586392,-3.54331 3.543307,-3.54331 1.956914,0 3.543307,1.58639 3.543307,3.54331 z"
       transform="translate(-20.123824,650.64315)" />
    <path
       sodipodi:type="arc"
       style="fill:#000000;stroke:#000000"
       id="path3895-2"
       sodipodi:cx="-60.236221"
       sodipodi:cy="124.01574"
       sodipodi:rx="3.5433071"
       sodipodi:ry="3.5433071"
       d="m -56.692914,124.01574 c 0,1.95691 -1.586393,3.54331 -3.543307,3.54331 -1.956915,0 -3.543307,-1.5864 -3.543307,-3.54331 0,-1.95692 1.586392,-3.54331 3.543307,-3.54331 1.956914,0 3.543307,1.58639 3.543307,3.54331 z"
       transform="translate(-55.502797,664.5459)" />
    <path
       sodipodi:type="arc"
       style="fill:#000000;stroke:#000000"
       id="path3895-4"
       sodipodi:cx="-60.236221"
       sodipodi:cy="124.01574"
       sodipodi:rx="3.5433071"
       sodipodi:ry="3.5433071"
       d="m -56.692914,124.01574 c 0,1.95691 -1.586393,3.54331 -3.543307,3.54331 -1.956915,0 -3.543307,-1.5864 -3.543307,-3.54331 0,-1.95692 1.586392,-3.54331 3.543307,-3.54331 1.956914,0 3.543307,1.58639 3.543307,3.54331 z"
       transform="translate(-73.625056,699.87078)" />
    <path
       sodipodi:type="arc"
       style="fill:#000000;stroke:#000000"
       id="path3895-42"
       sodipodi:cx="-60.236221"
       sodipodi:cy="124.01574"
       sodipodi:rx="3.5433071"
       sodipodi:ry="3.5433071"
       d="m -56.692914,124.01574 c 0,1.95691 -1.586393,3.54331 -3.543307,3.54331 -1.956915,0 -3.543307,-1.5864 -3.543307,-3.54331 0,-1.95692 1.586392,-3.54331 3.543307,-3.54331 1.956914,0 3.543307,1.58639 3.543307,3.54331 z"
       transform="translate(-58.694478,737.57589)" />
    <path
       sodipodi:type="arc"
       style="fill:#000000;stroke:#000000"
       id="path3895-3"
       sodipodi:cx="-60.236221"
       sodipodi:cy="124.01574"
       sodipodi:rx="3.5433071"
       sodipodi:ry="3.5433071"
       d="m -56.692914,124.01574 c 0,1.95691 -1.586393,3.54331 -3.543307,3.54331 -1.956915,0 -3.543307,-1.5864 -3.543307,-3.54331 0,-1.95692 1.586392,-3.54331 3.543307,-3.54331 1.956914,0 3.543307,1.58639 3.543307,3.54331 z"
       transform="translate(-23.531889,754.12936)" />
    <path
       sodipodi:type="arc"
       style="fill:#000000;stroke:#000000"
       id="path3895-427"
       sodipodi:cx="-60.236221"
       sodipodi:cy="124.01574"
       sodipodi:rx="3.5433071"
       sodipodi:ry="3.5433071"
       d="m -56.692914,124.01574 c 0,1.95691 -1.586393,3.54331 -3.543307,3.54331 -1.956915,0 -3.543307,-1.5864 -3.543307,-3.54331 0,-1.95692 1.586392,-3.54331 3.543307,-3.54331 1.956914,0 3.543307,1.58639 3.543307,3.54331 z"
       transform="translate(14.930574,738.82011)" />
    <path
       sodipodi:type="arc"
       style="fill:#000000;stroke:#000000"
       id="path3895-24"
       sodipodi:cx="-60.236221"
       sodipodi:cy="124.01574"
       sodipodi:rx="3.5433071"
       sodipodi:ry="3.5433071"
       d="m -56.692914,124.01574 c 0,1.95691 -1.586393,3.54331 -3.543307,3.54331 -1.956915,0 -3.543307,-1.5864 -3.543307,-3.54331 0,-1.95692 1.586392,-3.54331 3.543307,-3.54331 1.956914,0 3.543307,1.58639 3.543307,3.54331 z"
       transform="translate(47.604735,700.68221)" />
    <path
       sodipodi:type="arc"
       style="fill:#000000;stroke:#000000"
       id="path3895-9"
       sodipodi:cx="-60.236221"
       sodipodi:cy="124.01574"
       sodipodi:rx="3.5433071"
       sodipodi:ry="3.5433071"
       d="m -56.692914,124.01574 c 0,1.95691 -1.586393,3.54331 -3.543307,3.54331 -1.956915,0 -3.543307,-1.5864 -3.543307,-3.54331 0,-1.95692 1.586392,-3.54331 3.543307,-3.54331 1.956914,0 3.543307,1.58639 3.543307,3.54331 z"
       transform="translate(13.632269,664.65409)" />
    <path
       sodipodi:type="arc"
       style="fill:#000000;stroke:#000000"
       id="path3895-6"
       sodipodi:cx="-60.236221"
       sodipodi:cy="124.01574"
       sodipodi:rx="3.5433071"
       sodipodi:ry="3.5433071"
       d="m -56.692914,124.01574 c 0,1.95691 -1.586393,3.54331 -3.543307,3.54331 -1.956915,0 -3.543307,-1.5864 -3.543307,-3.54331 0,-1.95692 1.586392,-3.54331 3.543307,-3.54331 1.956914,0 3.543307,1.58639 3.543307,3.54331 z"
       transform="translate(229.80104,651.88736)" />
    <path
       sodipodi:type="arc"
       style="fill:#000000;stroke:#000000"
       id="path3895-2-3"
       sodipodi:cx="-60.236221"
       sodipodi:cy="124.01574"
       sodipodi:rx="3.5433071"
       sodipodi:ry="3.5433071"
       d="m -56.692914,124.01574 c 0,1.95691 -1.586393,3.54331 -3.543307,3.54331 -1.956915,0 -3.543307,-1.5864 -3.543307,-3.54331 0,-1.95692 1.586392,-3.54331 3.543307,-3.54331 1.956914,0 3.543307,1.58639 3.543307,3.54331 z"
       transform="translate(194.42206,665.79011)" />
    <path
       sodipodi:type="arc"
       style="fill:#000000;stroke:#000000"
       id="path3895-4-0"
       sodipodi:cx="-60.236221"
       sodipodi:cy="124.01574"
       sodipodi:rx="3.5433071"
       sodipodi:ry="3.5433071"
       d="m -56.692914,124.01574 c 0,1.95691 -1.586393,3.54331 -3.543307,3.54331 -1.956915,0 -3.543307,-1.5864 -3.543307,-3.54331 0,-1.95692 1.586392,-3.54331 3.543307,-3.54331 1.956914,0 3.543307,1.58639 3.543307,3.54331 z"
       transform="translate(176.2998,701.11499)" />
    <path
       sodipodi:type="arc"
       style="fill:#000000;stroke:#000000"
       id="path3895-42-8"
       sodipodi:cx="-60.236221"
       sodipodi:cy="124.01574"
       sodipodi:rx="3.5433071"
       sodipodi:ry="3.5433071"
       d="m -56.692914,124.01574 c 0,1.95691 -1.586393,3.54331 -3.543307,3.54331 -1.956915,0 -3.543307,-1.5864 -3.543307,-3.54331 0,-1.95692 1.586392,-3.54331 3.543307,-3.54331 1.956914,0 3.543307,1.58639 3.543307,3.54331 z"
       transform="translate(191.23038,738.8201)" />
    <path
       sodipodi:type="arc"
       style="fill:#000000;stroke:#000000"
       id="path3895-3-5"
       sodipodi:cx="-60.236221"
       sodipodi:cy="124.01574"
       sodipodi:rx="3.5433071"
       sodipodi:ry="3.5433071"
       d="m -56.692914,124.01574 c 0,1.95691 -1.586393,3.54331 -3.543307,3.54331 -1.956915,0 -3.543307,-1.5864 -3.543307,-3.54331 0,-1.95692 1.586392,-3.54331 3.543307,-3.54331 1.956914,0 3.543307,1.58639 3.543307,3.54331 z"
       transform="translate(226.39298,755.37357)" />
    <path
       sodipodi:type="arc"
       style="fill:#000000;stroke:#000000"
       id="path3895-427-4"
       sodipodi:cx="-60.236221"
       sodipodi:cy="124.01574"
       sodipodi:rx="3.5433071"
       sodipodi:ry="3.5433071"
       d="m -56.692914,124.01574 c 0,1.95691 -1.586393,3.54331 -3.543307,3.54331 -1.956915,0 -3.543307,-1.5864 -3.543307,-3.54331 0,-1.95692 1.586392,-3.54331 3.543307,-3.54331 1.956914,0 3.543307,1.58639 3.543307,3.54331 z"
       transform="translate(264.85544,740.06432)" />
    <path
       sodipodi:type="arc"
       style="fill:#000000;stroke:#000000"
       id="path3895-24-2"
       sodipodi:cx="-60.236221"
       sodipodi:cy="124.01574"
       sodipodi:rx="3.5433071"
       sodipodi:ry="3.5433071"
       d="m -56.692914,124.01574 c 0,1.95691 -1.586393,3.54331 -3.543307,3.54331 -1.956915,0 -3.543307,-1.5864 -3.543307,-3.54331 0,-1.95692 1.586392,-3.54331 3.543307,-3.54331 1.956914,0 3.543307,1.58639 3.543307,3.54331 z"
       transform="translate(278.70409,701.92642)" />
    <path
       sodipodi:type="arc"
       style="fill:#000000;stroke:#000000"
       id="path3895-9-7"
       sodipodi:cx="-60.236221"
       sodipodi:cy="124.01574"
       sodipodi:rx="3.5433071"
       sodipodi:ry="3.5433071"
       d="m -56.692914,124.01574 c 0,1.95691 -1.586393,3.54331 -3.543307,3.54331 -1.956915,0 -3.543307,-1.5864 -3.543307,-3.54331 0,-1.95692 1.586392,-3.54331 3.543307,-3.54331 1.956914,0 3.543307,1.58639 3.543307,3.54331 z"
       transform="translate(263.55713,665.8983)" />
    <path
       sodipodi:type="arc"
       style="fill:#000000;stroke:#000000"
       id="path3895-96"
       sodipodi:cx="-60.236221"
       sodipodi:cy="124.01574"
       sodipodi:rx="3.5433071"
       sodipodi:ry="3.5433071"
       d="m -56.692914,124.01574 c 0,1.95691 -1.586393,3.54331 -3.543307,3.54331 -1.956915,0 -3.543307,-1.5864 -3.543307,-3.54331 0,-1.95692 1.586392,-3.54331 3.543307,-3.54331 1.956914,0 3.543307,1.58639 3.543307,3.54331 z"
       transform="translate(461.87413,651.72506)" />
    <path
       sodipodi:type="arc"
       style="fill:#000000;stroke:#000000"
       id="path3895-2-1"
       sodipodi:cx="-60.236221"
       sodipodi:cy="124.01574"
       sodipodi:rx="3.5433071"
       sodipodi:ry="3.5433071"
       d="m -56.692914,124.01574 c 0,1.95691 -1.586393,3.54331 -3.543307,3.54331 -1.956915,0 -3.543307,-1.5864 -3.543307,-3.54331 0,-1.95692 1.586392,-3.54331 3.543307,-3.54331 1.956914,0 3.543307,1.58639 3.543307,3.54331 z"
       transform="translate(426.49515,665.62781)" />
    <path
       sodipodi:type="arc"
       style="fill:#000000;stroke:#000000"
       id="path3895-4-6"
       sodipodi:cx="-60.236221"
       sodipodi:cy="124.01574"
       sodipodi:rx="3.5433071"
       sodipodi:ry="3.5433071"
       d="m -56.692914,124.01574 c 0,1.95691 -1.586393,3.54331 -3.543307,3.54331 -1.956915,0 -3.543307,-1.5864 -3.543307,-3.54331 0,-1.95692 1.586392,-3.54331 3.543307,-3.54331 1.956914,0 3.543307,1.58639 3.543307,3.54331 z"
       transform="translate(408.37289,700.95269)" />
    <path
       sodipodi:type="arc"
       style="fill:#000000;stroke:#000000"
       id="path3895-42-0"
       sodipodi:cx="-60.236221"
       sodipodi:cy="124.01574"
       sodipodi:rx="3.5433071"
       sodipodi:ry="3.5433071"
       d="m -56.692914,124.01574 c 0,1.95691 -1.586393,3.54331 -3.543307,3.54331 -1.956915,0 -3.543307,-1.5864 -3.543307,-3.54331 0,-1.95692 1.586392,-3.54331 3.543307,-3.54331 1.956914,0 3.543307,1.58639 3.543307,3.54331 z"
       transform="translate(423.30347,738.6578)" />
    <path
       sodipodi:type="arc"
       style="fill:#000000;stroke:#000000"
       id="path3895-3-56"
       sodipodi:cx="-60.236221"
       sodipodi:cy="124.01574"
       sodipodi:rx="3.5433071"
       sodipodi:ry="3.5433071"
       d="m -56.692914,124.01574 c 0,1.95691 -1.586393,3.54331 -3.543307,3.54331 -1.956915,0 -3.543307,-1.5864 -3.543307,-3.54331 0,-1.95692 1.586392,-3.54331 3.543307,-3.54331 1.956914,0 3.543307,1.58639 3.543307,3.54331 z"
       transform="translate(458.46607,755.21127)" />
    <path
       sodipodi:type="arc"
       style="fill:#000000;stroke:#000000"
       id="path3895-427-2"
       sodipodi:cx="-60.236221"
       sodipodi:cy="124.01574"
       sodipodi:rx="3.5433071"
       sodipodi:ry="3.5433071"
       d="m -56.692914,124.01574 c 0,1.95691 -1.586393,3.54331 -3.543307,3.54331 -1.956915,0 -3.543307,-1.5864 -3.543307,-3.54331 0,-1.95692 1.586392,-3.54331 3.543307,-3.54331 1.956914,0 3.543307,1.58639 3.543307,3.54331 z"
       transform="translate(496.92853,739.90202)" />
    <path
       sodipodi:type="arc"
       style="fill:#000000;stroke:#000000"
       id="path3895-24-3"
       sodipodi:cx="-60.236221"
       sodipodi:cy="124.01574"
       sodipodi:rx="3.5433071"
       sodipodi:ry="3.5433071"
       d="m -56.692914,124.01574 c 0,1.95691 -1.586393,3.54331 -3.543307,3.54331 -1.956915,0 -3.543307,-1.5864 -3.543307,-3.54331 0,-1.95692 1.586392,-3.54331 3.543307,-3.54331 1.956914,0 3.543307,1.58639 3.543307,3.54331 z"
       transform="translate(510.77718,701.76412)" />
    <path
       sodipodi:type="arc"
       style="fill:#000000;stroke:#000000"
       id="path3895-9-6"
       sodipodi:cx="-60.236221"
       sodipodi:cy="124.01574"
       sodipodi:rx="3.5433071"
       sodipodi:ry="3.5433071"
       d="m -56.692914,124.01574 c 0,1.95691 -1.586393,3.54331 -3.543307,3.54331 -1.956915,0 -3.543307,-1.5864 -3.543307,-3.54331 0,-1.95692 1.586392,-3.54331 3.543307,-3.54331 1.956914,0 3.543307,1.58639 3.543307,3.54331 z"
       transform="translate(495.63022,665.736)" />
    <path
       sodipodi:type="arc"
       style="fill:#000000;stroke:#000000"
       id="path3895-93"
       sodipodi:cx="-60.236221"
       sodipodi:cy="124.01574"
       sodipodi:rx="3.5433071"
       sodipodi:ry="3.5433071"
       d="m -56.692914,124.01574 c 0,1.95691 -1.586393,3.54331 -3.543307,3.54331 -1.956915,0 -3.543307,-1.5864 -3.543307,-3.54331 0,-1.95692 1.586392,-3.54331 3.543307,-3.54331 1.956914,0 3.543307,1.58639 3.543307,3.54331 z"
       transform="matrix(0.906,0,0,1.108,339.5265,631.87758)" />
    <path
       sodipodi:type="arc"
       style="fill:#000000;stroke:#000000"
       id="path3895-2-5"
       sodipodi:cx="-60.236221"
       sodipodi:cy="124.01574"
       sodipodi:rx="3.5433071"
       sodipodi:ry="3.5433071"
       d="m -56.692914,124.01574 c 0,1.95691 -1.586393,3.54331 -3.543307,3.54331 -1.956915,0 -3.543307,-1.5864 -3.543307,-3.54331 0,-1.95692 1.586392,-3.54331 3.543307,-3.54331 1.956914,0 3.543307,1.58639 3.543307,3.54331 z"
       transform="matrix(0.906,0,0,1.108,307.47314,647.28183)" />
    <path
       sodipodi:type="arc"
       style="fill:#000000;stroke:#000000"
       id="path3895-4-7"
       sodipodi:cx="-60.236221"
       sodipodi:cy="124.01574"
       sodipodi:rx="3.5433071"
       sodipodi:ry="3.5433071"
       d="m -56.692914,124.01574 c 0,1.95691 -1.586393,3.54331 -3.543307,3.54331 -1.956915,0 -3.543307,-1.5864 -3.543307,-3.54331 0,-1.95692 1.586392,-3.54331 3.543307,-3.54331 1.956914,0 3.543307,1.58639 3.543307,3.54331 z"
       transform="matrix(0.906,0,0,1.108,291.05438,686.4218)" />
    <path
       sodipodi:type="arc"
       style="fill:#000000;stroke:#000000"
       id="path3895-42-6"
       sodipodi:cx="-60.236221"
       sodipodi:cy="124.01574"
       sodipodi:rx="3.5433071"
       sodipodi:ry="3.5433071"
       d="m -56.692914,124.01574 c 0,1.95691 -1.586393,3.54331 -3.543307,3.54331 -1.956915,0 -3.543307,-1.5864 -3.543307,-3.54331 0,-1.95692 1.586392,-3.54331 3.543307,-3.54331 1.956914,0 3.543307,1.58639 3.543307,3.54331 z"
       transform="matrix(0.906,0,0,1.108,304.58148,728.19906)" />
    <path
       sodipodi:type="arc"
       style="fill:#000000;stroke:#000000"
       id="path3895-3-7"
       sodipodi:cx="-60.236221"
       sodipodi:cy="124.01574"
       sodipodi:rx="3.5433071"
       sodipodi:ry="3.5433071"
       d="m -56.692914,124.01574 c 0,1.95691 -1.586393,3.54331 -3.543307,3.54331 -1.956915,0 -3.543307,-1.5864 -3.543307,-3.54331 0,-1.95692 1.586392,-3.54331 3.543307,-3.54331 1.956914,0 3.543307,1.58639 3.543307,3.54331 z"
       transform="matrix(0.906,0,0,1.108,336.4388,746.54031)" />
    <path
       sodipodi:type="arc"
       style="fill:#000000;stroke:#000000"
       id="path3895-427-5"
       sodipodi:cx="-60.236221"
       sodipodi:cy="124.01574"
       sodipodi:rx="3.5433071"
       sodipodi:ry="3.5433071"
       d="m -56.692914,124.01574 c 0,1.95691 -1.586393,3.54331 -3.543307,3.54331 -1.956915,0 -3.543307,-1.5864 -3.543307,-3.54331 0,-1.95692 1.586392,-3.54331 3.543307,-3.54331 1.956914,0 3.543307,1.58639 3.543307,3.54331 z"
       transform="matrix(0.906,0,0,1.108,371.28579,729.57766)" />
    <path
       sodipodi:type="arc"
       style="fill:#000000;stroke:#000000"
       id="path3895-24-1"
       sodipodi:cx="-60.236221"
       sodipodi:cy="124.01574"
       sodipodi:rx="3.5433071"
       sodipodi:ry="3.5433071"
       d="m -56.692914,124.01574 c 0,1.95691 -1.586393,3.54331 -3.543307,3.54331 -1.956915,0 -3.543307,-1.5864 -3.543307,-3.54331 0,-1.95692 1.586392,-3.54331 3.543307,-3.54331 1.956914,0 3.543307,1.58639 3.543307,3.54331 z"
       transform="matrix(0.906,0,0,1.108,383.83266,687.32086)" />
    <path
       sodipodi:type="arc"
       style="fill:#000000;stroke:#000000"
       id="path3895-9-3"
       sodipodi:cx="-60.236221"
       sodipodi:cy="124.01574"
       sodipodi:rx="3.5433071"
       sodipodi:ry="3.5433071"
       d="m -56.692914,124.01574 c 0,1.95691 -1.586393,3.54331 -3.543307,3.54331 -1.956915,0 -3.543307,-1.5864 -3.543307,-3.54331 0,-1.95692 1.586392,-3.54331 3.543307,-3.54331 1.956914,0 3.543307,1.58639 3.543307,3.54331 z"
       transform="matrix(0.906,0,0,1.108,370.10952,647.40171)" />
    <path
       sodipodi:type="arc"
       style="fill:#000000;stroke:#000000"
       id="path3895-90"
       sodipodi:cx="-60.236221"
       sodipodi:cy="124.01574"
       sodipodi:rx="3.5433071"
       sodipodi:ry="3.5433071"
       d="m -56.692914,124.01574 c 0,1.95691 -1.586393,3.54331 -3.543307,3.54331 -1.956915,0 -3.543307,-1.5864 -3.543307,-3.54331 0,-1.95692 1.586392,-3.54331 3.543307,-3.54331 1.956914,0 3.543307,1.58639 3.543307,3.54331 z"
       transform="matrix(1.106,0,0,0.908,113.52302,667.29982)" />
    <path
       sodipodi:type="arc"
       style="fill:#000000;stroke:#000000"
       id="path3895-2-37"
       sodipodi:cx="-60.236221"
       sodipodi:cy="124.01574"
       sodipodi:rx="3.5433071"
       sodipodi:ry="3.5433071"
       d="m -56.692914,124.01574 c 0,1.95691 -1.586393,3.54331 -3.543307,3.54331 -1.956915,0 -3.543307,-1.5864 -3.543307,-3.54331 0,-1.95692 1.586392,-3.54331 3.543307,-3.54331 1.956914,0 3.543307,1.58639 3.543307,3.54331 z"
       transform="matrix(1.106,0,0,0.908,74.393871,679.92352)" />
    <path
       sodipodi:type="arc"
       style="fill:#000000;stroke:#000000"
       id="path3895-4-1"
       sodipodi:cx="-60.236221"
       sodipodi:cy="124.01574"
       sodipodi:rx="3.5433071"
       sodipodi:ry="3.5433071"
       d="m -56.692914,124.01574 c 0,1.95691 -1.586393,3.54331 -3.543307,3.54331 -1.956915,0 -3.543307,-1.5864 -3.543307,-3.54331 0,-1.95692 1.586392,-3.54331 3.543307,-3.54331 1.956914,0 3.543307,1.58639 3.543307,3.54331 z"
       transform="matrix(1.106,0,0,0.908,36.174297,712.64767)" />
    <path
       sodipodi:type="arc"
       style="fill:#000000;stroke:#000000"
       id="path3895-42-9"
       sodipodi:cx="-60.236221"
       sodipodi:cy="124.01574"
       sodipodi:rx="3.5433071"
       sodipodi:ry="3.5433071"
       d="m -56.692914,124.01574 c 0,1.95691 -1.586393,3.54331 -3.543307,3.54331 -1.956915,0 -3.543307,-1.5864 -3.543307,-3.54331 0,-1.95692 1.586392,-3.54331 3.543307,-3.54331 1.956914,0 3.543307,1.58639 3.543307,3.54331 z"
       transform="matrix(1.106,0,0,0.908,70.863873,746.23475)" />
    <path
       sodipodi:type="arc"
       style="fill:#000000;stroke:#000000"
       id="path3895-3-0"
       sodipodi:cx="-60.236221"
       sodipodi:cy="124.01574"
       sodipodi:rx="3.5433071"
       sodipodi:ry="3.5433071"
       d="m -56.692914,124.01574 c 0,1.95691 -1.586393,3.54331 -3.543307,3.54331 -1.956915,0 -3.543307,-1.5864 -3.543307,-3.54331 0,-1.95692 1.586392,-3.54331 3.543307,-3.54331 1.956914,0 3.543307,1.58639 3.543307,3.54331 z"
       transform="matrix(1.106,0,0,0.908,109.75371,761.2653)" />
    <path
       sodipodi:type="arc"
       style="fill:#000000;stroke:#000000"
       id="path3895-427-8"
       sodipodi:cx="-60.236221"
       sodipodi:cy="124.01574"
       sodipodi:rx="3.5433071"
       sodipodi:ry="3.5433071"
       d="m -56.692914,124.01574 c 0,1.95691 -1.586393,3.54331 -3.543307,3.54331 -1.956915,0 -3.543307,-1.5864 -3.543307,-3.54331 0,-1.95692 1.586392,-3.54331 3.543307,-3.54331 1.956914,0 3.543307,1.58639 3.543307,3.54331 z"
       transform="matrix(1.106,0,0,0.908,152.29319,747.3645)" />
    <path
       sodipodi:type="arc"
       style="fill:#000000;stroke:#000000"
       id="path3895-24-7"
       sodipodi:cx="-60.236221"
       sodipodi:cy="124.01574"
       sodipodi:rx="3.5433071"
       sodipodi:ry="3.5433071"
       d="m -56.692914,124.01574 c 0,1.95691 -1.586393,3.54331 -3.543307,3.54331 -1.956915,0 -3.543307,-1.5864 -3.543307,-3.54331 0,-1.95692 1.586392,-3.54331 3.543307,-3.54331 1.956914,0 3.543307,1.58639 3.543307,3.54331 z"
       transform="matrix(1.106,0,0,0.908,167.6098,712.73529)" />
    <path
       sodipodi:type="arc"
       style="fill:#000000;stroke:#000000"
       id="path3895-9-2"
       sodipodi:cx="-60.236221"
       sodipodi:cy="124.01574"
       sodipodi:rx="3.5433071"
       sodipodi:ry="3.5433071"
       d="m -56.692914,124.01574 c 0,1.95691 -1.586393,3.54331 -3.543307,3.54331 -1.956915,0 -3.543307,-1.5864 -3.543307,-3.54331 0,-1.95692 1.586392,-3.54331 3.543307,-3.54331 1.956914,0 3.543307,1.58639 3.543307,3.54331 z"
       transform="matrix(1.106,0,0,0.908,150.85726,680.02176)" />
  </g>
</svg>
